<?xml version="1.0" standalone="no"?>
<!DOCTYPE svg PUBLIC "-//W3C//DTD SVG 20010904//EN"
 "http://www.w3.org/TR/2001/REC-SVG-20010904/DTD/svg10.dtd">
<svg version="1.0" xmlns="http://www.w3.org/2000/svg"
 width="681.000000pt" height="421.000000pt" viewBox="0 0 681.000000 421.000000"
 preserveAspectRatio="xMidYMid meet">

<g transform="translate(0.000000,421.000000) scale(0.100000,-0.100000)"
fill="#000000" stroke="none">
<path d="M2880 3125 l0 -235 45 0 45 0 0 190 0 190 1205 0 1205 0 0 -1210 0
-1210 -1205 0 -1205 0 0 190 0 190 -45 0 -45 0 0 -235 0 -235 1295 0 1295 0 0
1300 0 1300 -1295 0 -1295 0 0 -235z"/>
<path d="M3841 2802 c-41 -15 -76 -32 -78 -38 -2 -7 14 -25 36 -40 l41 -29 0
-281 0 -281 -40 -32 c-22 -17 -40 -36 -40 -41 0 -6 52 -10 124 -10 102 0 125
3 130 15 4 11 -6 20 -34 31 l-40 16 0 138 0 138 36 23 c50 30 119 37 144 14
19 -17 20 -32 20 -197 l0 -179 87 3 c99 3 118 18 54 44 l-41 16 0 165 c0 185
-7 210 -64 237 -60 28 -94 21 -166 -35 l-65 -51 -3 201 c-2 151 -5 201 -15
200 -6 0 -45 -12 -86 -27z"/>
<path d="M2940 2780 c-37 -37 -21 -100 28 -115 17 -5 29 1 52 24 34 33 37 56
14 89 -19 28 -67 29 -94 2z"/>
<path d="M2177 2743 c-17 -16 -4 -31 38 -43 l45 -13 0 -272 0 -273 -45 -36
c-25 -21 -45 -42 -45 -47 0 -5 107 -9 264 -9 148 0 276 -4 290 -10 l26 -10 0
120 c0 100 -3 120 -15 120 -8 0 -43 -43 -77 -95 l-63 -95 -117 0 -118 0 0 289
0 289 45 36 c25 21 45 42 45 47 0 10 -263 13 -273 2z"/>
<path d="M4443 2591 c-46 -55 -83 -106 -83 -115 0 -13 11 -16 50 -16 l50 0 0
-155 c0 -181 11 -224 65 -249 56 -27 102 -21 156 21 27 20 49 41 49 45 0 17
-29 19 -59 4 -40 -21 -67 -20 -91 4 -18 18 -20 33 -20 175 l0 155 81 0 c71 0
80 2 77 18 -3 14 -16 17 -81 20 l-77 3 0 94 c0 125 -10 124 -117 -4z"/>
<path d="M2943 2513 c-85 -31 -91 -45 -33 -85 l40 -28 0 -132 0 -133 -40 -29
c-67 -50 -56 -57 82 -54 132 3 160 16 94 43 l-36 15 -2 212 c-3 180 -5 213
-18 215 -8 1 -48 -10 -87 -24z"/>
<path d="M3376 2514 c-56 -20 -103 -59 -126 -104 -49 -96 -5 -194 99 -221 l48
-12 -34 -30 c-55 -48 -45 -64 78 -124 119 -59 133 -76 94 -121 -20 -23 -31
-27 -77 -26 -65 1 -122 28 -177 85 -55 58 -73 49 -69 -33 l3 -63 55 -19 c80
-27 207 -33 249 -11 47 24 117 90 131 124 21 52 -15 84 -152 136 -26 10 -53
24 -59 32 -19 23 4 58 55 83 91 44 141 139 113 212 l-15 38 55 0 c46 0 54 3
51 18 -3 14 -17 18 -83 22 -44 3 -90 11 -102 18 -28 16 -88 14 -137 -4z m109
-84 c60 -57 54 -151 -12 -169 -49 -14 -89 -4 -123 30 -43 43 -44 126 -3 157
27 21 108 10 138 -18z"/>
<path d="M2170 1560 c0 -5 5 -10 10 -10 15 0 13 -163 -2 -178 -9 -9 -5 -12 21
-12 28 0 31 2 21 14 -7 10 -10 45 -8 105 3 89 2 91 -19 91 -13 0 -23 -4 -23
-10z"/>
<path d="M2489 1474 c2 -73 0 -99 -10 -105 -9 -6 0 -9 26 -9 30 0 36 3 27 12
-19 19 -15 95 5 102 26 10 35 -8 32 -63 -4 -51 -4 -51 26 -51 22 0 26 3 17 12
-7 7 -12 31 -12 54 0 25 -6 49 -16 58 -18 19 -20 19 -45 6 -17 -10 -19 -7 -19
35 0 36 -3 45 -17 45 -16 0 -18 -10 -14 -96z"/>
<path d="M3237 1552 c-10 -10 -17 -25 -17 -34 0 -8 -3 -17 -6 -21 -3 -3 -7
-35 -8 -71 l-1 -66 30 0 c22 0 26 3 17 12 -7 7 -12 33 -12 59 0 41 3 48 23 52
l22 4 -22 2 c-17 1 -23 7 -23 24 0 37 14 49 45 41 20 -5 26 -4 21 5 -11 17
-51 13 -69 -7z"/>
<path d="M2265 1551 c-7 -12 12 -24 25 -16 11 7 4 25 -10 25 -5 0 -11 -4 -15
-9z"/>
<path d="M2750 1546 c0 -9 7 -16 16 -16 17 0 14 22 -4 28 -7 2 -12 -3 -12 -12z"/>
<path d="M2648 1499 c-10 -10 -14 -19 -9 -19 6 0 11 -23 13 -51 3 -57 22 -78
54 -64 18 8 17 9 -3 12 -20 4 -23 10 -23 53 0 42 3 49 23 53 l22 4 -22 2 c-13
0 -23 8 -23 16 0 20 -11 18 -32 -6z"/>
<path d="M2364 1490 c-28 -11 -36 -34 -19 -56 9 -13 10 -23 3 -31 -6 -7 -8
-20 -4 -28 3 -9 0 -25 -6 -35 -19 -30 5 -44 69 -41 13 0 30 12 39 26 22 34 4
55 -48 55 -47 0 -48 20 0 32 19 5 33 17 38 31 4 12 12 25 18 29 6 4 8 9 6 11
-11 10 -77 14 -96 7z m44 -34 c5 -24 -10 -38 -31 -30 -17 6 -23 35 -10 48 12
12 38 1 41 -18z m20 -108 c8 -8 9 -15 1 -25 -19 -22 -79 -13 -79 12 0 24 57
34 78 13z"/>
<path d="M2882 1491 c-7 -4 -25 -6 -39 -3 -23 4 -24 3 -14 -16 14 -26 14 -67
1 -93 -10 -17 -7 -19 22 -19 25 0 29 3 20 12 -17 17 -15 83 3 98 12 10 18 10
30 0 18 -15 20 -81 3 -98 -9 -9 -4 -12 22 -12 26 0 31 3 22 12 -7 7 -12 33
-12 58 0 60 -23 84 -58 61z"/>
<path d="M3013 1490 c-17 -7 -23 -18 -23 -40 0 -16 5 -30 11 -30 8 0 8 -5 -1
-15 -7 -8 -9 -22 -6 -31 4 -9 1 -23 -5 -30 -6 -8 -9 -21 -5 -29 8 -22 88 -20
109 3 31 34 19 52 -42 61 -43 7 -45 22 -6 33 22 5 35 18 47 43 15 34 15 35 -7
35 -13 0 -29 2 -37 4 -7 3 -23 1 -35 -4z m45 -37 c-4 -34 -33 -43 -43 -14 -8
27 1 41 26 41 16 0 20 -6 17 -27z m13 -104 c27 -14 7 -39 -31 -39 -30 0 -45
21 -27 39 14 14 33 14 58 0z"/>
<path d="M3316 1479 c-47 -37 -22 -119 37 -119 32 0 67 35 67 68 0 33 -8 45
-37 61 -30 15 -36 14 -67 -10z m62 -11 c24 -24 9 -98 -19 -98 -28 0 -54 82
-32 103 10 11 38 8 51 -5z"/>
<path d="M3506 1491 c-3 -4 -16 -6 -28 -4 -22 4 -23 2 -23 -61 l0 -66 30 0
c22 0 26 3 17 12 -16 16 -15 85 1 95 6 4 20 6 30 5 21 -4 23 14 1 22 -20 8
-22 8 -28 -3z"/>
<path d="M3655 1476 c-30 -30 -32 -65 -5 -94 24 -26 49 -28 76 -7 18 15 18 15
-9 9 -29 -7 -57 9 -57 32 0 10 13 14 40 14 31 0 40 4 40 18 -1 47 -49 64 -85
28z m59 -11 c4 -11 -2 -15 -24 -15 -29 0 -38 9 -23 23 12 12 41 7 47 -8z"/>
<path d="M3761 1484 c8 -9 26 -42 40 -73 l27 -56 27 60 c16 33 32 62 37 63 18
8 7 22 -17 22 -24 0 -35 -15 -16 -22 6 -2 2 -21 -7 -42 l-18 -40 -14 34 c-8
19 -13 42 -13 52 1 14 -5 18 -29 18 -27 0 -29 -2 -17 -16z"/>
<path d="M3935 1476 c-30 -31 -32 -55 -4 -90 23 -29 46 -33 75 -11 18 14 17
14 -13 9 -25 -5 -33 -2 -42 14 -16 30 -15 31 32 34 36 3 42 6 39 23 -4 24 -11
31 -39 39 -17 5 -29 1 -48 -18z m63 -13 c2 -9 -7 -13 -27 -13 -30 0 -39 9 -24
24 11 10 46 3 51 -11z"/>
<path d="M4061 1492 c-14 -2 -19 -7 -13 -11 17 -10 19 -101 1 -112 -10 -6 -2
-9 26 -9 30 0 36 3 27 12 -16 16 -16 98 1 99 6 1 20 1 30 0 9 -1 17 3 17 10 0
25 26 -11 45 -63 23 -62 21 -77 -8 -100 l-22 -18 22 0 c18 0 27 14 52 81 17
44 31 85 31 90 0 5 5 9 10 9 6 0 10 5 10 10 0 6 -11 10 -25 10 -24 0 -35 -15
-16 -22 4 -1 3 -19 -4 -38 l-12 -35 -16 32 c-9 17 -14 39 -10 48 5 15 -1 16
-45 12 -27 -2 -55 -7 -60 -11 -6 -3 -12 -3 -14 1 -1 5 -14 6 -27 5z"/>
<path d="M4326 1479 c-33 -26 -35 -70 -4 -99 43 -40 108 -11 108 49 0 30 -38
71 -65 71 -7 0 -24 -9 -39 -21z m62 -11 c7 -7 12 -27 12 -45 0 -41 -30 -61
-54 -37 -16 15 -22 75 -9 87 10 11 38 8 51 -5z"/>
<path d="M4470 1489 c-14 -4 -19 -7 -12 -8 8 -1 12 -19 12 -55 0 -34 -5 -56
-12 -59 -7 -3 5 -5 27 -5 22 0 34 2 28 5 -20 7 -17 99 3 107 9 3 20 4 25 1 15
-10 23 -77 10 -97 -10 -16 -8 -18 21 -18 25 0 29 3 20 12 -7 7 -12 31 -12 54
0 25 -6 49 -16 58 -18 18 -23 19 -44 6 -8 -5 -17 -5 -20 -1 -3 4 -16 4 -30 0z"/>
<path d="M4645 1475 c-30 -29 -32 -64 -5 -93 24 -26 49 -28 76 -7 18 15 18 15
-9 9 -29 -7 -57 9 -57 32 0 10 13 14 40 14 33 0 40 3 40 19 0 18 -34 51 -53
51 -4 0 -19 -11 -32 -25z m59 -10 c4 -11 -2 -15 -24 -15 -29 0 -38 9 -23 23
12 12 41 7 47 -8z"/>
<path d="M2258 1478 c7 -7 12 -30 12 -53 0 -23 -5 -46 -12 -53 -9 -9 -3 -12
28 -12 27 0 35 3 25 9 -11 7 -14 25 -12 65 2 55 2 56 -25 56 -22 0 -25 -3 -16
-12z"/>
<path d="M2738 1483 c7 -3 12 -25 12 -58 0 -33 -5 -55 -12 -58 -7 -3 5 -6 27
-6 30 -1 36 2 27 11 -7 7 -12 36 -12 65 0 51 -1 53 -27 52 -16 0 -22 -3 -15
-6z"/>
</g>
</svg>
