<svg width="198" height="160" viewBox="0 0 198 160" fill="none" xmlns="http://www.w3.org/2000/svg">
<path d="M42.6116 14.4615V28.9231H45.3114H48.0112V17.2308V5.53847H120.306H192.6V80V154.462H120.306H48.0112V142.769V131.077H45.3114H42.6116V145.538V160H120.306H198V80V0H120.306H42.6116V14.4615Z" fill="black"/>
<path d="M100.267 34.3385C97.8076 35.2616 95.7078 36.3077 95.5878 36.6769C95.4678 37.1077 96.4277 38.2154 97.7476 39.1385L100.207 40.9231V58.2154V75.5077L97.8076 77.4769C96.4877 78.5231 95.4078 79.6923 95.4078 80C95.4078 80.3692 98.5275 80.6154 102.847 80.6154C108.967 80.6154 110.347 80.4308 110.647 79.6923C110.887 79.0154 110.287 78.4616 108.607 77.7846L106.207 76.8V68.3077V59.8154L108.367 58.4C111.367 56.5539 115.506 56.1231 117.006 57.5385C118.146 58.5846 118.206 59.5077 118.206 69.6616V80.6769L123.426 80.4923C129.365 80.3077 130.505 79.3846 126.665 77.7846L124.206 76.8V66.6462C124.206 55.2616 123.786 53.7231 120.366 52.0616C116.766 50.3385 114.726 50.7693 110.407 54.2154L106.507 57.3539L106.327 44.9846C106.207 35.6923 106.027 32.6154 105.427 32.6769C105.067 32.6769 102.727 33.4154 100.267 34.3385Z" fill="black"/>
<path d="M46.2113 35.6923C43.9915 37.9692 44.9514 41.8461 47.8912 42.7692C48.9111 43.0769 49.6311 42.7077 51.011 41.2923C53.0508 39.2615 53.2308 37.8461 51.8509 35.8154C50.711 34.0923 47.8312 34.0307 46.2113 35.6923Z" fill="black"/>
<path d="M0.434842 37.9692C-0.585081 38.9538 0.19486 39.8769 2.71467 40.6154L5.41447 41.4154V58.1538V74.9538L2.71467 77.1692C1.21478 78.4615 0.0148734 79.7538 0.0148734 80.0615C0.0148734 80.3692 6.43439 80.6154 15.8537 80.6154C24.733 80.6154 32.4124 80.8615 33.2524 81.2307L34.8123 81.8461V74.4615C34.8123 68.3077 34.6323 67.0769 33.9123 67.0769C33.4324 67.0769 31.3325 69.7231 29.2927 72.9231L25.513 78.7692H18.4935H11.414V60.9846V43.2L14.1138 40.9846C15.6137 39.6923 16.8136 38.4 16.8136 38.0923C16.8136 37.4769 1.0348 37.2923 0.434842 37.9692Z" fill="black"/>
<path d="M136.385 47.3231C133.625 50.7077 131.405 53.8461 131.405 54.4C131.405 55.2 132.065 55.3846 134.405 55.3846H137.405V64.9231C137.405 76.0615 138.064 78.7077 141.304 80.2461C144.664 81.9077 147.424 81.5384 150.664 78.9538C152.283 77.7231 153.603 76.4308 153.603 76.1846C153.603 75.1384 151.863 75.0154 150.064 75.9384C147.664 77.2308 146.044 77.1692 144.604 75.6923C143.524 74.5846 143.404 73.6615 143.404 64.9231V55.3846H148.264C152.523 55.3846 153.063 55.2615 152.883 54.2769C152.703 53.4154 151.923 53.2308 148.024 53.0461L143.404 52.8615V47.0769C143.404 39.3846 142.804 39.4461 136.385 47.3231Z" fill="black"/>
<path d="M46.3914 52.1231C41.2918 54.0308 40.9318 54.8923 44.4116 57.3538L46.8114 59.0769V67.2V75.3846L44.4116 77.1692C40.3919 80.2461 41.0518 80.6769 49.3312 80.4923C57.2506 80.3077 58.9305 79.5077 54.9708 77.8461L52.8109 76.9231L52.6909 63.8769C52.511 52.8 52.391 50.7692 51.611 50.6461C51.1311 50.5846 48.7312 51.2615 46.3914 52.1231Z" fill="black"/>
<path d="M72.3694 52.0615C69.0096 53.2923 66.1898 55.6923 64.81 58.4615C61.8702 64.3692 64.51 70.4 70.7495 72.0615L73.6293 72.8L71.5894 74.6462C68.2897 77.6 68.8896 78.5846 76.2691 82.2769C83.4086 85.9077 84.2485 86.9538 81.9087 89.7231C80.7088 91.1385 80.0488 91.3846 77.289 91.3231C73.3893 91.2615 69.9696 89.6 66.6698 86.0923C63.3701 82.5231 62.2901 83.0769 62.5301 88.1231L62.7101 92L66.0099 93.1692C70.8095 94.8308 78.4289 95.2 80.9487 93.8462C83.7685 92.3692 87.9682 88.3077 88.8081 86.2154C90.0681 83.0154 87.9082 81.0462 79.6888 77.8462C78.129 77.2308 76.5091 76.3692 76.1491 75.8769C75.0092 74.4615 76.3891 72.3077 79.4489 70.7692C84.9084 68.0615 87.9082 62.2154 86.2283 57.7231L85.3284 55.3846H88.6282C91.388 55.3846 91.8679 55.2 91.6879 54.2769C91.5079 53.4154 90.668 53.1692 86.7083 52.9231C84.0685 52.7385 81.3087 52.2462 80.5888 51.8154C78.9089 50.8308 75.3092 50.9538 72.3694 52.0615ZM78.9089 57.2308C82.5086 60.7385 82.1486 66.5231 78.1889 67.6308C75.2492 68.4923 72.8493 67.8769 70.8095 65.7846C68.2297 63.1385 68.1697 58.0308 70.6295 56.1231C72.2494 54.8308 77.109 55.5077 78.9089 57.2308Z" fill="black"/>
<path d="M0.0149231 110.769C0.0149231 111.077 0.3149 111.385 0.614878 111.385C1.51481 111.385 1.39482 121.415 0.494887 122.338C-0.0450724 122.892 0.19491 123.077 1.75479 123.077C3.43467 123.077 3.61465 122.954 3.0147 122.215C2.59473 121.6 2.41474 119.446 2.53473 115.754C2.71472 110.277 2.65472 110.154 1.39482 110.154C0.614878 110.154 0.0149231 110.4 0.0149231 110.769Z" fill="black"/>
<path d="M19.1535 116.061C19.2735 120.554 19.1535 122.154 18.5535 122.523C18.0136 122.892 18.5535 123.077 20.1134 123.077C21.9133 123.077 22.2733 122.892 21.7333 122.338C20.5934 121.169 20.8334 116.492 22.0333 116.061C23.5932 115.446 24.1331 116.554 23.9531 119.938C23.7131 123.077 23.7131 123.077 25.513 123.077C26.8329 123.077 27.0729 122.892 26.5329 122.338C26.113 121.908 25.813 120.431 25.813 119.015C25.813 117.477 25.453 116 24.8531 115.446C23.7731 114.277 23.6531 114.277 22.1533 115.077C21.1333 115.692 21.0133 115.508 21.0133 112.923C21.0133 110.708 20.8334 110.154 19.9934 110.154C19.0335 110.154 18.9135 110.769 19.1535 116.061Z" fill="black"/>
<path d="M64.03 111.261C63.4301 111.877 63.0101 112.8 63.0101 113.354C63.0101 113.846 62.8301 114.4 62.6501 114.646C62.4701 114.831 62.2302 116.8 62.1702 119.015L62.1102 123.077H63.91C65.2299 123.077 65.4699 122.892 64.93 122.338C64.51 121.908 64.21 120.308 64.21 118.708C64.21 116.185 64.39 115.754 65.5899 115.508L66.9098 115.261L65.5899 115.138C64.57 115.077 64.21 114.708 64.21 113.661C64.21 111.385 65.0499 110.646 66.9098 111.138C68.1097 111.446 68.4697 111.385 68.1697 110.831C67.5098 109.785 65.1099 110.031 64.03 111.261Z" fill="black"/>
<path d="M5.71445 111.323C5.29449 112.062 6.4344 112.8 7.21434 112.308C7.87429 111.877 7.45432 110.769 6.61439 110.769C6.31441 110.769 5.95444 111.015 5.71445 111.323Z" fill="black"/>
<path d="M34.8123 111.631C34.8123 112.185 35.2322 112.615 35.7722 112.615C36.7921 112.615 36.6121 111.262 35.5322 110.892C35.1122 110.769 34.8123 111.077 34.8123 111.631Z" fill="black"/>
<path d="M28.6927 114.523C28.0928 115.138 27.8528 115.692 28.1528 115.692C28.5127 115.692 28.8127 117.108 28.9327 118.831C29.1127 122.338 30.2526 123.631 32.1725 122.769C33.2524 122.277 33.1924 122.215 31.9925 122.031C30.7926 121.785 30.6126 121.415 30.6126 118.769C30.6126 116.185 30.7926 115.754 31.9925 115.508L33.3124 115.261L31.9925 115.138C31.2125 115.138 30.6126 114.646 30.6126 114.154C30.6126 112.923 29.9526 113.046 28.6927 114.523Z" fill="black"/>
<path d="M11.6541 115.077C9.97418 115.754 9.49422 117.169 10.5141 118.523C11.0541 119.323 11.1141 119.939 10.6941 120.431C10.3342 120.862 10.2142 121.662 10.4541 122.154C10.6341 122.708 10.4541 123.692 10.0942 124.308C8.95426 126.154 10.3942 127.015 14.2339 126.831C15.0138 126.831 16.0337 126.092 16.5737 125.231C17.8936 123.139 16.8137 121.846 13.6939 121.846C10.8741 121.846 10.8141 120.615 13.6939 119.877C14.8338 119.569 15.6738 118.831 15.9737 117.969C16.2137 117.231 16.6937 116.431 17.0536 116.185C17.4136 115.939 17.5336 115.631 17.4136 115.508C16.7537 114.892 12.794 114.646 11.6541 115.077ZM14.2939 117.169C14.5938 118.646 13.6939 119.508 12.434 119.015C11.4141 118.646 11.0541 116.862 11.834 116.062C12.554 115.323 14.1139 116 14.2939 117.169ZM15.4938 123.815C15.9737 124.308 16.0337 124.739 15.5538 125.354C14.4138 126.708 10.8141 126.154 10.8141 124.615C10.8141 123.139 14.2339 122.523 15.4938 123.815Z" fill="black"/>
<path d="M42.7316 115.015C42.3116 115.261 41.2317 115.385 40.3918 115.2C39.0119 114.954 38.9519 115.015 39.5519 116.185C40.3918 117.785 40.3918 120.308 39.6119 121.908C39.0119 122.954 39.1919 123.077 40.9318 123.077C42.4316 123.077 42.6716 122.892 42.1317 122.338C41.1117 121.292 41.2317 117.231 42.3116 116.308C43.0316 115.692 43.3916 115.692 44.1115 116.308C45.1914 117.231 45.3114 121.292 44.2915 122.338C43.7515 122.892 44.0515 123.077 45.6114 123.077C47.1713 123.077 47.4713 122.892 46.9313 122.338C46.5113 121.908 46.2114 120.308 46.2114 118.769C46.2114 115.077 44.8315 113.6 42.7316 115.015Z" fill="black"/>
<path d="M50.591 115.077C49.571 115.508 49.2111 116.185 49.2111 117.538C49.2111 118.523 49.511 119.385 49.871 119.385C50.351 119.385 50.351 119.692 49.811 120.308C49.3911 120.8 49.2711 121.662 49.451 122.215C49.691 122.769 49.511 123.631 49.1511 124.062C48.7911 124.554 48.6111 125.354 48.8511 125.846C49.3311 127.2 54.1307 127.077 55.3906 125.662C57.2505 123.569 56.5305 122.462 52.8708 121.908C50.291 121.477 50.171 120.554 52.5108 119.877C53.8307 119.569 54.6107 118.769 55.3306 117.231C56.2305 115.138 56.2305 115.077 54.9106 115.077C54.1307 115.077 53.1708 114.954 52.6908 114.831C52.2708 114.646 51.3109 114.769 50.591 115.077ZM53.2908 117.354C53.0508 119.446 51.3109 120 50.711 118.215C50.231 116.554 50.7709 115.692 52.2708 115.692C53.2308 115.692 53.4707 116.062 53.2908 117.354ZM54.0707 123.754C55.6906 124.615 54.4907 126.154 52.2108 126.154C50.411 126.154 49.511 124.862 50.591 123.754C51.4309 122.892 52.5708 122.892 54.0707 123.754Z" fill="black"/>
<path d="M68.7698 115.754C65.95 118.031 67.4499 123.077 70.9896 123.077C72.9095 123.077 75.0093 120.923 75.0093 118.892C75.0093 116.861 74.5294 116.123 72.7895 115.138C70.9896 114.215 70.6297 114.277 68.7698 115.754ZM72.4895 116.431C73.9294 117.908 73.0295 122.461 71.3496 122.461C69.6697 122.461 68.1099 117.415 69.4298 116.123C70.0297 115.446 71.7096 115.631 72.4895 116.431Z" fill="black"/>
<path d="M80.1689 115.015C79.9889 115.261 79.209 115.385 78.489 115.261C77.1691 115.015 77.1091 115.138 77.1091 119.015V123.077H78.909C80.2289 123.077 80.4689 122.892 79.9289 122.338C78.969 121.354 79.029 117.108 79.9889 116.492C80.3489 116.246 81.1888 116.123 81.7888 116.185C83.0487 116.431 83.1687 115.323 81.8488 114.831C80.6489 114.338 80.5289 114.338 80.1689 115.015Z" fill="black"/>
<path d="M89.1081 115.938C87.3083 117.785 87.1883 119.938 88.8081 121.723C90.248 123.323 91.7479 123.446 93.3678 122.154C94.4477 121.231 94.4477 121.231 92.8278 121.6C91.088 122.031 89.4081 121.046 89.4081 119.631C89.4081 119.015 90.188 118.769 91.8079 118.769C93.6678 118.769 94.2077 118.523 94.2077 117.662C94.1477 114.769 91.268 113.723 89.1081 115.938ZM92.6479 116.615C92.8878 117.292 92.5279 117.538 91.208 117.538C89.4681 117.538 88.9281 116.985 89.8281 116.123C90.548 115.385 92.2879 115.692 92.6479 116.615Z" fill="black"/>
<path d="M95.4677 115.446C95.9476 116 97.0276 118.031 97.8675 119.938L99.4874 123.385L101.107 119.692C102.067 117.662 103.027 115.877 103.327 115.815C104.407 115.323 103.747 114.462 102.307 114.462C100.867 114.462 100.207 115.385 101.347 115.815C101.707 115.938 101.467 117.108 100.927 118.4L99.8473 120.862L99.0074 118.769C98.5274 117.6 98.2275 116.185 98.2275 115.569C98.2875 114.708 97.9275 114.462 96.4876 114.462C94.8677 114.462 94.7477 114.585 95.4677 115.446Z" fill="black"/>
<path d="M105.907 115.938C104.107 117.846 103.987 119.323 105.667 121.477C107.047 123.262 108.427 123.508 110.167 122.154C111.247 121.292 111.187 121.292 109.387 121.6C107.887 121.908 107.407 121.723 106.867 120.738C105.907 118.892 105.967 118.831 108.787 118.646C110.947 118.462 111.307 118.277 111.127 117.231C110.887 115.754 110.467 115.323 108.787 114.831C107.767 114.523 107.047 114.769 105.907 115.938ZM109.687 116.738C109.807 117.292 109.267 117.538 108.067 117.538C106.267 117.538 105.727 116.985 106.627 116.062C107.287 115.446 109.387 115.877 109.687 116.738Z" fill="black"/>
<path d="M113.466 114.954C112.626 115.077 112.326 115.385 112.686 115.631C113.706 116.246 113.826 121.846 112.746 122.523C112.146 122.892 112.626 123.077 114.306 123.077C116.106 123.077 116.466 122.892 115.926 122.338C114.966 121.354 114.966 116.308 115.986 116.246C116.346 116.185 117.186 116.185 117.786 116.246C118.326 116.308 118.806 116.062 118.806 115.631C118.806 114.092 120.366 116.308 121.506 119.508C122.886 123.323 122.766 124.246 121.026 125.662L119.706 126.769H121.026C122.106 126.769 122.646 125.908 124.146 121.785C125.165 119.077 126.005 116.554 126.005 116.246C126.005 115.938 126.305 115.692 126.605 115.692C126.965 115.692 127.205 115.385 127.205 115.077C127.205 114.708 126.545 114.462 125.705 114.462C124.266 114.462 123.606 115.385 124.746 115.815C124.986 115.877 124.926 116.985 124.506 118.154L123.786 120.308L122.826 118.338C122.286 117.292 121.986 115.938 122.226 115.385C122.526 114.462 122.166 114.4 119.526 114.646C117.906 114.769 116.226 115.077 115.926 115.323C115.566 115.508 115.206 115.508 115.086 115.262C115.026 114.954 114.246 114.892 113.466 114.954Z" fill="black"/>
<path d="M129.365 115.754C127.385 117.354 127.265 120.062 129.125 121.846C131.705 124.308 135.605 122.523 135.605 118.831C135.605 116.985 133.325 114.462 131.705 114.462C131.285 114.462 130.265 115.015 129.365 115.754ZM133.085 116.431C133.505 116.862 133.805 118.092 133.805 119.2C133.805 121.723 132.005 122.954 130.565 121.477C129.605 120.554 129.245 116.862 130.025 116.123C130.625 115.446 132.305 115.631 133.085 116.431Z" fill="black"/>
<path d="M138.004 115.138C137.165 115.385 136.865 115.569 137.285 115.631C137.764 115.692 138.004 116.8 138.004 119.015C138.004 121.108 137.705 122.461 137.285 122.646C136.865 122.831 137.585 122.954 138.904 122.954C140.224 122.954 140.944 122.831 140.584 122.646C139.384 122.215 139.564 116.554 140.764 116.061C141.304 115.877 141.964 115.815 142.264 116C143.164 116.615 143.644 120.738 142.864 121.969C142.264 122.954 142.384 123.077 144.124 123.077C145.624 123.077 145.864 122.892 145.324 122.338C144.904 121.908 144.604 120.431 144.604 119.015C144.604 117.477 144.244 116 143.644 115.446C142.564 114.338 142.264 114.277 141.004 115.077C140.524 115.385 139.984 115.385 139.804 115.138C139.624 114.892 138.844 114.892 138.004 115.138Z" fill="black"/>
<path d="M148.504 116C146.704 117.785 146.584 119.938 148.204 121.723C149.644 123.323 151.143 123.446 152.763 122.154C153.843 121.231 153.843 121.231 152.223 121.6C150.484 122.031 148.804 121.046 148.804 119.631C148.804 119.015 149.584 118.769 151.203 118.769C153.183 118.769 153.603 118.585 153.603 117.6C153.603 116.492 151.563 114.462 150.424 114.462C150.184 114.462 149.284 115.138 148.504 116ZM152.043 116.615C152.283 117.292 151.923 117.538 150.604 117.538C148.864 117.538 148.324 116.985 149.224 116.123C149.944 115.385 151.683 115.692 152.043 116.615Z" fill="black"/>
<path d="M5.2944 115.815C5.71437 116.246 6.01435 117.661 6.01435 119.077C6.01435 120.492 5.71437 121.908 5.2944 122.338C4.75445 122.892 5.11442 123.077 6.97428 123.077C8.59416 123.077 9.07412 122.892 8.47417 122.523C7.81422 122.092 7.63423 120.985 7.75422 118.523C7.87421 115.138 7.87421 115.077 6.25433 115.077C4.93443 115.077 4.75445 115.261 5.2944 115.815Z" fill="black"/>
<path d="M34.0924 115.508C34.5123 115.692 34.8123 117.046 34.8123 119.077C34.8123 121.108 34.5123 122.462 34.0924 122.646C33.6724 122.831 34.3923 123.015 35.7122 123.015C37.5121 123.077 37.8721 122.892 37.3321 122.338C36.9121 121.908 36.6122 120.123 36.6122 118.338C36.6122 115.2 36.5522 115.077 34.9923 115.138C34.0324 115.138 33.6724 115.323 34.0924 115.508Z" fill="black"/>
</svg>
