<svg width="33" height="24" viewBox="0 0 33 24" fill="none" xmlns="http://www.w3.org/2000/svg">
<path d="M26.9333 10.3252C26.9333 10.3252 27.3685 12.2526 27.4665 12.6564H25.5536C25.7423 12.1948 26.4703 10.4026 26.4703 10.4026C26.459 10.4185 26.659 9.9308 26.7735 9.63054L26.9333 10.3252ZM33 2.4869V20.7223C33 22.0949 31.7687 23.2092 30.2497 23.2092H2.75026C1.23231 23.2092 0 22.0958 0 20.7223V2.4869C0 1.1143 1.23127 0 2.75026 0H30.2497C31.7677 0 33 1.11337 33 2.4869ZM8.73751 15.5004L12.3581 7.46069H9.92341L7.67226 12.952L7.4258 11.8386L6.62351 8.13953C6.49152 7.62667 6.08522 7.4812 5.58095 7.46069H1.87475L1.83454 7.62107C2.73995 7.82808 3.54739 8.12834 4.25171 8.50692L6.3028 15.5004H8.73751ZM14.1462 15.5107L15.59 7.46069H13.2872L11.8497 15.5107H14.1462ZM22.1609 12.8793C22.1722 11.9626 21.5535 11.2633 20.2304 10.688C19.423 10.3196 18.9301 10.0716 18.9301 9.69302C18.9414 9.3508 19.3487 8.99833 20.2531 8.99833C21.0038 8.98248 21.5535 9.14379 21.966 9.30418L22.1722 9.39183L22.4878 7.65091C22.0351 7.49053 21.3132 7.30869 20.4253 7.30869C18.1505 7.30869 16.5521 8.40714 16.5407 9.97089C16.5232 11.1262 17.6864 11.7687 18.5578 12.1566C19.4457 12.5501 19.7499 12.8093 19.7499 13.1562C19.7385 13.6952 19.028 13.9432 18.3691 13.9432C17.4523 13.9432 16.9594 13.8136 16.2087 13.5133L15.9055 13.3837L15.5848 15.1918C16.1231 15.4147 17.1203 15.6114 18.1515 15.6217C20.5687 15.6263 22.1444 14.5437 22.1619 12.8765L22.1609 12.8793ZM30.2497 15.5107L28.3936 7.46069H26.6116C26.062 7.46069 25.6433 7.60615 25.4082 8.12927L21.9876 15.5116H24.4048C24.4048 15.5116 24.7998 14.5167 24.8864 14.305H27.8429C27.912 14.5903 28.1182 15.5116 28.1182 15.5116L30.2497 15.5107Z" fill="black"/>
</svg>
