<svg width="33" height="25" viewBox="0 0 33 25" fill="none" xmlns="http://www.w3.org/2000/svg">
<path d="M10.6741 12.304C10.6741 12.9678 10.1183 13.473 9.41399 13.473C8.88704 13.473 8.49724 13.1901 8.49724 12.6574C8.49724 11.9936 9.04172 11.461 9.74088 11.461C10.274 11.461 10.6741 11.7714 10.6741 12.304ZM4.61264 9.66638H4.34349C4.2579 9.66638 4.17128 9.72121 4.15993 9.81324L3.91347 11.2662L4.38371 11.2495C5.01378 11.2495 5.50052 11.1683 5.61498 10.4771C5.74698 9.74764 5.26024 9.66638 4.61264 9.66638ZM20.8832 9.66638H20.6254C20.5223 9.66638 20.4532 9.72121 20.4418 9.81324L20.2016 11.2662L20.6594 11.2495C21.404 11.2495 21.9196 11.086 21.9196 10.2705C21.9134 9.69379 21.371 9.66638 20.8832 9.66638ZM33 2.61119V21.7579C33 23.1991 31.7687 24.3691 30.2497 24.3691H2.75026C1.23231 24.3691 0 23.2001 0 21.7579V2.61119C0 1.16999 1.23127 0 2.75026 0H30.2497C31.7677 0 33 1.16901 33 2.61119ZM7.35155 9.97577C7.35155 8.83319 6.42346 8.45233 5.36336 8.45233H3.072C2.92866 8.45233 2.78532 8.56101 2.77398 8.70787L1.83454 14.2612C1.81701 14.3698 1.90363 14.4785 2.01809 14.4785H3.10706C3.26174 14.4785 3.40508 14.3209 3.42261 14.1682L3.68042 12.7211C3.73816 12.3295 4.4363 12.4655 4.71163 12.4655C6.35024 12.4655 7.35258 11.5413 7.35258 9.97479L7.35155 9.97577ZM12.1756 10.4545H11.0866C10.869 10.4545 10.8577 10.7541 10.8463 10.901C10.5143 10.4389 10.0327 10.3566 9.48824 10.3566C8.08475 10.3566 7.01331 11.5256 7.01331 12.8151C7.01331 13.8754 7.71248 14.5666 8.82929 14.5666C9.3449 14.5666 9.98631 14.3003 10.3472 13.9195C10.3184 14.0007 10.2895 14.175 10.2895 14.2573C10.2895 14.3826 10.3472 14.4746 10.473 14.4746H11.4589C11.6136 14.4746 11.7456 14.317 11.7744 14.1642L12.3591 10.667C12.3767 10.5632 12.2901 10.4545 12.1756 10.4545ZM14.4958 15.7797L18.1453 10.7424C18.1742 10.715 18.1742 10.6876 18.1742 10.6503C18.1742 10.5583 18.0886 10.4604 17.9906 10.4604H16.8903C16.7934 10.4604 16.6903 10.5152 16.6325 10.5965L15.1146 12.7181L14.4845 10.6787C14.4391 10.5593 14.3123 10.4614 14.1689 10.4614H13.0975C12.9995 10.4614 12.9139 10.5593 12.9139 10.6513C12.9139 10.7169 14.0307 13.7413 14.1287 14.0291C13.974 14.2357 12.9542 15.5849 12.9542 15.7484C12.9542 15.8463 13.0398 15.9227 13.1377 15.9227H14.238C14.3411 15.9178 14.4381 15.8629 14.4958 15.7817V15.7797ZM23.6221 9.97577C23.6221 8.83319 22.694 8.45233 21.6339 8.45233H19.3591C19.2044 8.45233 19.061 8.56101 19.0435 8.70787L18.1154 14.2563C18.1041 14.3649 18.1896 14.4736 18.299 14.4736H19.4735C19.588 14.4736 19.6736 14.3924 19.7024 14.2993L19.9603 12.7221C20.018 12.3304 20.7172 12.4665 20.9915 12.4665C22.6187 12.4665 23.6221 11.5423 23.6221 9.97577ZM28.4451 10.4545H27.3561C27.1386 10.4545 27.1272 10.7541 27.1097 10.901C26.7941 10.4389 26.3074 10.3566 25.7516 10.3566C24.3481 10.3566 23.2766 11.5256 23.2766 12.8151C23.2766 13.8754 23.9758 14.5666 25.0926 14.5666C25.6258 14.5666 26.2672 14.3003 26.6106 13.9195C26.593 14.0007 26.5528 14.175 26.5528 14.2573C26.5528 14.3826 26.6106 14.4746 26.7364 14.4746H27.7274C27.8821 14.4746 28.0141 14.317 28.0429 14.1642L28.6276 10.667C28.6452 10.5632 28.5596 10.4545 28.4451 10.4545ZM31.1665 8.64325C31.1665 8.53457 31.0809 8.45331 30.9829 8.45331H29.9228C29.8373 8.45331 29.7506 8.51891 29.7393 8.60017L28.8112 14.2573L28.7947 14.2847C28.7947 14.3826 28.8803 14.4746 28.9947 14.4746H29.9404C30.0837 14.4746 30.2271 14.317 30.2384 14.1642L31.1665 8.65989V8.64325ZM26.0104 11.461C25.3112 11.461 24.7668 11.9887 24.7668 12.6574C24.7668 13.1852 25.1679 13.473 25.6949 13.473C26.3827 13.473 26.9385 12.9727 26.9385 12.304C26.9447 11.7714 26.5435 11.461 26.0104 11.461Z" fill="black"/>
</svg>
