<svg width="33" height="24" viewBox="0 0 33 24" fill="none" xmlns="http://www.w3.org/2000/svg">
<path d="M32.3111 3.55687C31.9191 2.16529 30.8339 1.07389 29.4361 0.688088C26.8624 3.28951e-05 16.5158 3.30614e-05 16.5158 3.30614e-05C16.5158 3.30614e-05 6.18875 -0.0164722 3.58817 0.688088C2.19762 1.07492 1.10725 2.16529 0.719382 3.55687C0.231452 6.19459 -0.0109666 8.86428 0.00038064 11.5464C-0.00477719 14.2109 0.236609 16.8765 0.719382 19.4977C1.10725 20.8893 2.19762 21.9806 3.58817 22.3726C6.16193 23.0607 16.5158 23.0607 16.5158 23.0607C16.5158 23.0607 26.8366 23.0607 29.4361 22.3726C30.8339 21.9806 31.9191 20.8903 32.3111 19.4977C32.7846 16.8765 33.0157 14.2109 32.9992 11.5464C33.0157 8.86428 32.7897 6.19459 32.3111 3.55687ZM13.2106 16.4845V6.58658L21.8232 11.5464L13.2106 16.4845Z" fill="black"/>
</svg>
