<svg width="33" height="30" viewBox="0 0 33 30" fill="none" xmlns="http://www.w3.org/2000/svg">
<path d="M21.5648 0H11.4352C2.19134 0 0 1.97586 0 10.3107V19.4443C0 27.7791 2.19134 29.755 11.4352 29.755H21.5648C30.8087 29.755 33 27.7791 33 19.4443V10.3107C33 1.97586 30.787 0 21.5648 0ZM26.6405 21.2258H24.245C23.3375 21.2258 23.058 20.5768 21.4256 19.0854C20.0077 17.8459 19.3797 17.6814 19.0301 17.6814C18.5361 17.6814 18.3959 17.8069 18.3959 18.4178V20.3694C18.3959 20.8929 18.2134 21.2072 16.6769 21.2072C14.1359 21.2072 11.3166 19.8218 9.33974 17.2406C6.35849 13.4581 5.5428 10.625 5.5428 10.0392C5.5428 9.724 5.68201 9.42925 6.35333 9.42925H8.75401C9.3614 9.42925 9.59239 9.68123 9.82854 10.267C11.0155 13.3568 12.9923 16.0635 13.808 16.0635C14.1091 16.0635 14.2483 15.938 14.2483 15.2452V12.0541C14.1566 10.5822 13.2976 10.4558 13.2976 9.93321C13.2976 9.68123 13.5285 9.42925 13.8988 9.42925H17.674C18.1845 9.42925 18.3722 9.68123 18.3722 10.2233V14.5284C18.3722 14.9933 18.6032 15.1578 18.7424 15.1578C19.0435 15.1578 19.3013 14.9933 19.8592 14.4893C21.5834 12.7459 22.8188 10.0578 22.8188 10.0578C22.9797 9.7426 23.2591 9.44785 23.8665 9.44785H26.2672C26.987 9.44785 27.1478 9.78165 26.987 10.2466C26.6859 11.5055 23.7479 15.2443 23.7479 15.2443C23.4953 15.6218 23.3983 15.7864 23.7479 16.2076C24.0057 16.5228 24.8441 17.1765 25.402 17.7623C26.428 18.8129 27.2169 19.6944 27.4273 20.3044C27.6634 20.9097 27.3149 21.2249 26.6374 21.2249L26.6405 21.2258Z" fill="black"/>
</svg>
